<svg xmlns="http://www.w3.org/2000/svg" width="220.48" height="195.02" viewBox="0 0 220.48 195.02"><title>bring-forward</title><g id="Layer_2" data-name="Layer 2"><g id="Layer_1-2" data-name="Layer 1"><polygon points="119.86 6.1 110.31 12.19 100.76 6.1 110.31 0 119.86 6.1"/><polygon points="139.87 18.88 130.32 24.98 120.77 18.88 130.32 12.78 139.87 18.88"/><polygon points="160.16 31.84 150.61 37.94 141.07 31.84 150.61 25.74 160.16 31.84"/><polygon points="170.84 50.77 180.31 44.71 170.77 38.62 170.7 38.66 169.63 37.98 169.71 37.94 170.77 38.62 161.29 44.67 170.84 50.77"/><polygon points="200.39 57.54 190.85 63.64 181.3 57.54 190.85 51.44 200.39 57.54"/><polygon points="220.41 70.32 210.86 76.42 201.31 70.32 210.86 64.22 220.41 70.32"/><polygon points="39.1 83.24 29.56 89.33 20.01 83.24 29.56 77.14 39.1 83.24"/><polygon points="99.63 19.01 90.08 25.11 80.54 19.01 90.08 12.92 99.63 19.01"/><polygon points="79.55 31.84 70 37.94 60.46 31.84 70 25.74 79.55 31.84"/><polygon points="39.24 57.59 29.7 63.68 20.15 57.59 29.7 51.49 39.24 57.59"/><polygon points="19.09 70.46 9.55 76.55 0 70.46 9.55 64.36 19.09 70.46"/><polygon points="200.18 83.24 190.64 89.33 181.09 83.24 190.64 77.14 200.18 83.24"/><path d="M179.32,96.83l.71-.45-9.55-6.1-2,1.26c1.2,1.4,2.33,2.76,3.54,4.16a33.81,33.81,0,0,0,3.39,2A7.3,7.3,0,0,1,179.32,96.83Z"/><path d="M220.48,124.74l-32-20.41a5.34,5.34,0,0,1-2.55,1.26,21.62,21.62,0,0,1-5.8,4.16l23.26,14.86-93.27,59.57L16.9,124.61l24.61-15.72c-2.76-1.76-5.66-3.43-8.49-5.06L.35,124.7,110.45,195Z"/><path d="M50.28,90.37l-.14-.09-9.55,6.1.92.59C44.41,94.75,47.38,92.59,50.28,90.37Z"/><polygon points="59.54 44.62 49.99 50.72 40.45 44.62 49.99 38.52 59.54 44.62"/><polygon points="59.4 96.2 49.85 102.3 40.3 96.2 49.85 90.1 59.4 96.2"/><polygon points="78.98 108.71 69.44 114.81 59.89 108.71 69.44 102.61 78.98 108.71"/><polygon points="99.63 121.9 90.08 128 80.54 121.9 90.08 115.8 99.63 121.9"/><polygon points="119.64 134.68 110.1 140.78 100.55 134.68 110.1 128.58 119.64 134.68"/><polygon points="140.01 121.94 130.46 128.04 120.92 121.94 130.46 115.85 140.01 121.94"/><polygon points="160.3 108.98 150.75 115.08 141.21 108.98 150.75 102.89 160.3 108.98"/><polygon points="180.74 96.2 171.19 102.3 161.65 96.2 171.19 90.1 180.74 96.2"/><line x1="110.25" y1="104.73" x2="110.25" y2="40.19" style="fill:none;stroke:#000;stroke-miterlimit:10;stroke-width:12px"/><line x1="144.42" y1="60.59" x2="107.1" y2="36.76" style="fill:none;stroke:#000;stroke-miterlimit:10;stroke-width:12px"/><line x1="113.39" y1="37.19" x2="79.26" y2="58.98" style="fill:none;stroke:#000;stroke-miterlimit:10;stroke-width:12px"/></g></g></svg>