<svg xmlns="http://www.w3.org/2000/svg" width="206.05" height="165.08" viewBox="0 0 206.05 165.08">
  <title>glyphs</title>
  <g id="Layer_2" data-name="Layer 2">
    <g id="Layer_1-2" data-name="Layer 1">
      <path d="M203.89,97.76a5.79,5.79,0,0,0,1.89,1.49q.54.14,0,1.22-2.17,3.52-5.14,8.92t-6.49,11.49Q190.64,127,186.73,133A99.11,99.11,0,0,1,178.62,144a49.72,49.72,0,0,1-8.51,8,14.44,14.44,0,0,1-8.38,3.11,9,9,0,0,1-6.22-2.16,14.62,14.62,0,0,1-3.79-5.41,28.63,28.63,0,0,1-1.89-6.89,45.15,45.15,0,0,1-.54-6.62,153.85,153.85,0,0,1,2.43-21.09q2.16-12.43,5.68-26.22-7,1.35-14.6,2.57T127.93,91q-3.24,7.3-7.3,15.27t-8.79,15.81a174.79,174.79,0,0,1-10.14,15,122.62,122.62,0,0,1-11.08,12.84,68,68,0,0,1-14.19,10.81,29.42,29.42,0,0,1-15.81,4.33,19.1,19.1,0,0,1-10.81-3.92q-4.87-3.65-7.84-12a60,60,0,0,1-11.89,7.57A25.85,25.85,0,0,1,16,158.85Q7.1,158,3.31,152.36A18.15,18.15,0,0,1,.07,140.47a22.07,22.07,0,0,1,4.33-11.35,12.58,12.58,0,0,1,10-5.41A14.94,14.94,0,0,1,17,124a20,20,0,0,1,2.7.68,2.61,2.61,0,0,1,1.62,1.22,1.77,1.77,0,0,1-.41,1.89q-2.17,2.43-4.19,1.22a13,13,0,0,0-3.11-1.49Q9.79,127,7,130.74a18,18,0,0,0-3.38,9.19,16.65,16.65,0,0,0,2.3,10.27q2.84,4.87,11.22,5.41a21.11,21.11,0,0,0,12.57-2.7,77.2,77.2,0,0,0,10.95-7.84,74,74,0,0,1-1.89-11.49,89,89,0,0,1-.27-12,83.25,83.25,0,0,1,2-14.19,63.13,63.13,0,0,1,5.41-15.14,36.65,36.65,0,0,1,9.19-11.76A18.2,18.2,0,0,1,68.46,76.4,11.74,11.74,0,0,1,74.81,79a11,11,0,0,1,3.24,5.14,17.43,17.43,0,0,1,.68,6.49,40.72,40.72,0,0,1-1.08,6.62,63.63,63.63,0,0,1-5.14,13.38,116.88,116.88,0,0,1-8.11,13.52,150.66,150.66,0,0,1-9.73,12.57,109.26,109.26,0,0,1-10,10.27q2.43,7.57,6.89,10.68a15.49,15.49,0,0,0,9.87,2.84,27.68,27.68,0,0,0,12.84-4.19,41.42,41.42,0,0,0,11.22-9.6,100.81,100.81,0,0,0,8-11.89Q97.38,128,101,120.6t7-15q3.38-7.56,6.62-14.87-7-.54-11.35-3.65T99,77.75a12.2,12.2,0,0,1,1.22-5.27,23.26,23.26,0,0,1,3-4.73A17.28,17.28,0,0,1,107,64.24a6.57,6.57,0,0,1,3.38-1.35,2,2,0,0,1,2.16,1.89q.54,2.7-1.89,3a15.2,15.2,0,0,0-3.79.81q-4.05,4.87-4.6,8.92-.54,5.14,3.38,7.3A26.06,26.06,0,0,0,116,87.49q5.41-13,11.08-26a230,230,0,0,1,12.71-24.87,100.66,100.66,0,0,1,18.38-22.57A60.84,60.84,0,0,1,183.89.44a10.11,10.11,0,0,1,5.41-.14q2.43.68,5.41,1.22a13.76,13.76,0,0,1-.54,2q-.54,1.76-1.22,4.19t-1.49,4.73a28.19,28.19,0,0,0-1.08,3.65q-3.52,12.16-8.92,29.6T170.91,81.81a30.11,30.11,0,0,1,4.19-.27,15.29,15.29,0,0,1,4.19.54,5.43,5.43,0,0,1,3,2,7.06,7.06,0,0,1,1.08,4.19,10.86,10.86,0,0,1-1.62,4.6,12.2,12.2,0,0,1-3.24,3.51,19.74,19.74,0,0,1-2.16,1.22,11,11,0,0,1-2.57.95,3.81,3.81,0,0,1-2,0c-.54-.18-.81-.81-.81-1.89a2.85,2.85,0,0,1,.81-2.3,3.63,3.63,0,0,1,1.89-.81,15.7,15.7,0,0,1,1.89-.13,3,3,0,0,0,1.35-.27,4.87,4.87,0,0,0,3.24-4.87,3.17,3.17,0,0,0-1.08-2.7,6.13,6.13,0,0,0-2.7-1.08,10.77,10.77,0,0,0-3.38,0,19.42,19.42,0,0,1-2.84.27q-3.79,14.6-6.76,28.11a149.12,149.12,0,0,0-3.51,23c0,.9-.09,2.21-.27,3.92a32.15,32.15,0,0,0-.14,5.14,17.28,17.28,0,0,0,.81,4.59c.45,1.35,1.22,2,2.3,2q3,0,6.89-3.38a68.19,68.19,0,0,0,8.11-8.51,121.83,121.83,0,0,0,8.25-11.49q4.05-6.35,7.7-12.3t6.35-10.81ZM43.59,142.63a48.5,48.5,0,0,0,7.16-8.92A143.11,143.11,0,0,0,58.19,121q3.51-6.75,6.35-13.52a112.42,112.42,0,0,0,4.19-11.35q.81-2.43,1.49-5.14A28,28,0,0,0,71,85.86a8,8,0,0,0-.68-4.05,3.78,3.78,0,0,0-3.24-1.89A13.8,13.8,0,0,0,55.89,84a36,36,0,0,0-7.7,11.22,71.26,71.26,0,0,0-4.6,14.06,80.38,80.38,0,0,0-1.89,12.57,82.54,82.54,0,0,0,.13,10.54A52.94,52.94,0,0,0,43.59,142.63Zm86-55.42q7-.54,14.46-1.62t14.19-2.16q2.43-9.46,5-18.92t5.14-18.11q2.57-8.65,4.87-16.35t4.19-13.65q.54-1.35,1.49-4.73t1.76-5.81a45,45,0,0,0-19.33,12.3,85,85,0,0,0-12.84,19.06,201.34,201.34,0,0,0-9.6,24.19Q134.68,74.24,129.55,87.22Z"/>
    </g>
  </g>
</svg>
