<svg xmlns="http://www.w3.org/2000/svg" width="221.1" height="197.46" viewBox="0 0 221.1 197.46"><title>send-backward</title><g id="Layer_2" data-name="Layer 2"><g id="Layer_1-2" data-name="Layer 1"><polygon points="120.17 191.3 110.61 197.46 101.05 191.3 110.61 185.13 120.17 191.3"/><polygon points="140.34 178.29 130.78 184.46 121.22 178.29 130.78 172.13 140.34 178.29"/><polygon points="160.59 165.24 151.03 171.4 141.47 165.24 151.03 159.07 160.59 165.24"/><polygon points="161.72 152.23 171.24 158.37 170.19 159.05 170.11 159 171.16 158.32 171.24 158.37 180.8 152.21 171.28 146.07 161.72 152.23"/><polygon points="200.97 139.2 191.41 145.37 181.85 139.2 191.41 133.04 200.97 139.2"/><polygon points="221.1 126.23 211.54 132.39 201.98 126.23 211.54 120.06 221.1 126.23"/><polygon points="39.29 113.14 29.73 119.31 20.17 113.14 29.73 106.98 39.29 113.14"/><polygon points="99.88 178.22 90.32 184.38 80.76 178.22 90.32 172.05 99.88 178.22"/><polygon points="79.75 165.24 70.19 171.4 60.63 165.24 70.19 159.07 79.75 165.24"/><polygon points="39.33 139.18 29.77 145.34 20.21 139.18 29.77 133.01 39.33 139.18"/><polygon points="19.12 126.15 9.56 132.31 0 126.15 9.56 119.98 19.12 126.15"/><polygon points="200.81 113.14 191.25 119.31 181.69 113.14 191.25 106.98 200.81 113.14"/><path d="M221.1,71.18,110.69,0,.28,71.18,42.77,98.57l-2,1.28L50.34,106l2-1.28,58.36,37.63L169,104.79l2,1.28,9.56-6.16-2-1.28Zm-17.17.1-93.52,60.29L16.89,71.29,110.41,11Z"/><polygon points="59.7 152.31 50.14 158.47 40.58 152.31 50.14 146.15 59.7 152.31"/><line x1="110.99" y1="34.37" x2="110.99" y2="98.91" style="fill:none;stroke:#000;stroke-miterlimit:10;stroke-width:12px"/><line x1="76.83" y1="78.5" x2="114.15" y2="102.34" style="fill:none;stroke:#000;stroke-miterlimit:10;stroke-width:12px"/><line x1="107.86" y1="101.91" x2="141.98" y2="80.12" style="fill:none;stroke:#000;stroke-miterlimit:10;stroke-width:12px"/></g></g></svg>