<svg xmlns="http://www.w3.org/2000/svg" width="216.49" height="215.39" viewBox="0 0 216.49 215.39">
  <title>shadow_1</title>
  <g id="Layer_2" data-name="Layer 2">
    <g id="Layer_1-2" data-name="Layer 1">
      <rect x="2.5" y="2.5" width="168.15" height="168.15" style="fill: none;stroke: #000;stroke-miterlimit: 10;stroke-width: 5px"/>
      <polygon points="45.84 212.89 45.84 170.65 170.65 170.65 170.65 44.74 213.99 44.74 213.99 212.89 45.84 212.89" style="fill: #555;stroke: #000;stroke-miterlimit: 10;stroke-width: 5px"/>
      <path d="M117.53,109.63q0,13-9.42,20.26t-25.57,7.27q-17.5,0-26.92-4.51v-11a70.77,70.77,0,0,0,13.19,4,69.38,69.38,0,0,0,14.13,1.48q11.44,0,17.23-4.34A14.25,14.25,0,0,0,106,110.7a15.51,15.51,0,0,0-2.05-8.38,19.09,19.09,0,0,0-6.86-6A96.22,96.22,0,0,0,82.4,90Q68.67,85.13,62.78,78.4T56.89,60.83q0-11.37,8.55-18.1T88.06,36a66.65,66.65,0,0,1,27,5.38l-3.57,10a61,61,0,0,0-23.69-5.11q-9.09,0-14.2,3.9A12.86,12.86,0,0,0,68.47,61a16.6,16.6,0,0,0,1.88,8.38,17.72,17.72,0,0,0,6.36,6,78.9,78.9,0,0,0,13.7,6q15.48,5.52,21.3,11.85T117.53,109.63Z" style="fill: #222"/>
    </g>
  </g>
</svg>
