<svg xmlns="http://www.w3.org/2000/svg" width="58.72" height="76" viewBox="0 0 58.72 76">
  <title>us_letter</title>
  <g id="Layer_2" data-name="Layer 2">
    <g id="Layer_1-2" data-name="Layer 1">
      <rect id="_8.5x11" data-name="8.5x11" width="58.72" height="76" style="fill: #ccc"/>
      <g>
        <path d="M24.48,26.24V31c0,1.81.8,2.58,1.88,2.58s2-.79,2-2.58V26.24h1.06V31c0,2.48-1.31,3.5-3.06,3.5s-2.9-.95-2.9-3.45V26.24Z" style="fill: #fff"/>
        <path d="M31.05,33.05a3.7,3.7,0,0,0,1.87.53c1.07,0,1.69-.56,1.69-1.38s-.43-1.19-1.52-1.61C31.77,30.12,31,29.44,31,28.3a2.33,2.33,0,0,1,2.61-2.19,3.68,3.68,0,0,1,1.79.4l-.29.85A3.22,3.22,0,0,0,33.54,27c-1.1,0-1.52.66-1.52,1.21,0,.76.49,1.13,1.61,1.56,1.37.53,2.06,1.19,2.06,2.37s-.92,2.33-2.83,2.33a4.17,4.17,0,0,1-2.06-.52Z" style="fill: #fff"/>
        <path d="M15.62,40.64h1v7.21h3.45v.88h-4.5Z" style="fill: #fff"/>
        <path d="M21.66,46a1.86,1.86,0,0,0,2,2,3.82,3.82,0,0,0,1.61-.3l.18.75a4.7,4.7,0,0,1-1.93.36,2.7,2.7,0,0,1-2.85-2.93c0-1.75,1-3.13,2.72-3.13a2.46,2.46,0,0,1,2.4,2.73,4,4,0,0,1,0,.49Zm3.09-.75a1.5,1.5,0,0,0-1.46-1.71,1.75,1.75,0,0,0-1.62,1.71Z" style="fill: #fff"/>
        <path d="M28.36,41.25v1.67h1.51v.8H28.36v3.13c0,.72.2,1.13.79,1.13a2.35,2.35,0,0,0,.61-.07l0,.79a2.58,2.58,0,0,1-.94.14,1.46,1.46,0,0,1-1.14-.44,2.15,2.15,0,0,1-.41-1.51V43.72h-.9v-.8h.9V41.53Z" style="fill: #fff"/>
        <path d="M32.33,41.25v1.67h1.51v.8H32.33v3.13c0,.72.2,1.13.79,1.13a2.34,2.34,0,0,0,.61-.07l0,.79a2.58,2.58,0,0,1-.94.14,1.46,1.46,0,0,1-1.14-.44,2.15,2.15,0,0,1-.41-1.51V43.72h-.9v-.8h.9V41.53Z" style="fill: #fff"/>
        <path d="M35.55,46a1.86,1.86,0,0,0,2,2,3.82,3.82,0,0,0,1.61-.3l.18.75a4.69,4.69,0,0,1-1.93.36,2.7,2.7,0,0,1-2.85-2.93c0-1.75,1-3.13,2.72-3.13a2.46,2.46,0,0,1,2.4,2.73,3.82,3.82,0,0,1,0,.49Zm3.09-.75a1.5,1.5,0,0,0-1.46-1.71,1.75,1.75,0,0,0-1.62,1.71Z" style="fill: #fff"/>
        <path d="M41,44.73c0-.68,0-1.27,0-1.81h.92l0,1.14h0a1.74,1.74,0,0,1,1.61-1.27,1.12,1.12,0,0,1,.3,0v1a1.56,1.56,0,0,0-.36,0,1.48,1.48,0,0,0-1.42,1.36,3,3,0,0,0,0,.49v3.09H41Z" style="fill: #fff"/>
      </g>
    </g>
  </g>
</svg>
