<?xml version="1.0" standalone="no"?>
<!DOCTYPE svg PUBLIC "-//W3C//DTD SVG 20010904//EN"
 "http://www.w3.org/TR/2001/REC-SVG-20010904/DTD/svg10.dtd">
<svg version="1.0" xmlns="http://www.w3.org/2000/svg"
 width="500.000000pt" height="500.000000pt" viewBox="0 0 500.000000 500.000000"
 preserveAspectRatio="xMidYMid meet">
<metadata>
Created by potrace 1.11, written by Peter Selinger 2001-2013
</metadata>
<g transform="translate(0.000000,500.000000) scale(0.100000,-0.100000)"
fill="#000000" stroke="none">
<path d="M0 2500 l0 -2500 2500 0 2500 0 0 2500 0 2500 -2500 0 -2500 0 0
-2500z m3046 1933 c-3 -10 -44 -198 -91 -418 -47 -220 -88 -410 -91 -422 l-6
-23 166 0 c135 0 166 -3 166 -14 0 -8 -9 -58 -20 -111 -11 -53 -20 -99 -20
-101 0 -2 -76 -4 -170 -4 -93 0 -170 -4 -170 -8 0 -5 -84 -399 -186 -878 -163
-759 -187 -881 -188 -964 -1 -79 2 -101 20 -130 41 -71 128 -101 249 -85 145
18 303 152 392 333 27 53 53 112 60 130 l11 32 116 0 c64 0 116 -4 116 -9 0
-5 -20 -60 -46 -123 -96 -240 -215 -429 -369 -584 -161 -163 -319 -254 -533
-306 -115 -28 -308 -30 -402 -5 -207 55 -342 195 -402 414 -17 62 -21 109 -22
233 -1 190 -8 148 179 1025 73 342 195 917 195 921 0 2 -40 4 -90 4 -49 0 -90
4 -90 9 0 18 40 203 46 212 3 6 44 9 90 8 47 -1 87 0 89 3 3 2 41 173 86 379
45 206 84 378 88 382 7 7 747 113 809 116 18 1 22 -3 18 -16z"/>
</g>
</svg>
